<svg xmlns="http://www.w3.org/2000/svg" width="100" height="100"><path d="M96.228 74.308c-3.442 6.335-12.645 11.75-19.113 15.408-7.32 4.14-17.76 9.868-26.28 10.266-7.528.35-17.093-4.473-23.68-7.936-7.453-3.92-17.923-9.598-22.548-16.372C.52 69.69.16 59.45.04 52.33c-.134-8.06-.164-19.466 3.732-26.638 3.442-6.335 12.645-11.75 19.113-15.408 7.32-4.14 17.76-9.868 26.28-10.266 7.528-.35 17.093 4.473 23.68 7.936 7.453 3.92 17.923 9.598 22.548 16.372C99.48 30.31 99.84 40.55 99.96 47.67c.134 8.06.164 19.466-3.732 26.638z" fill="#1b1b1b"/></svg>